<?xml version="1.0" encoding="UTF-8" standalone="no"?><!DOCTYPE svg PUBLIC "-//W3C//DTD SVG 1.1//EN" "http://www.w3.org/Graphics/SVG/1.1/DTD/svg11.dtd"><svg width="100%" height="100%" viewBox="0 0 576 512" version="1.1" xmlns="http://www.w3.org/2000/svg" xmlns:xlink="http://www.w3.org/1999/xlink" xml:space="preserve" xmlns:serif="http://www.serif.com/" style="fill-rule:evenodd;clip-rule:evenodd;stroke-linejoin:round;stroke-miterlimit:1.41421;"><path d="M504.717,320l-293.145,0l6.545,32l268.418,0c15.401,0 26.816,14.301 23.403,29.319l-5.517,24.276c18.691,9.073 31.579,28.233 31.579,50.405c0,31.202 -25.519,56.444 -56.824,55.994c-29.823,-0.429 -54.35,-24.631 -55.155,-54.447c-0.44,-16.287 6.085,-31.049 16.803,-41.548l-209.648,0c10.377,10.166 16.824,24.327 16.824,40.001c0,31.813 -26.528,57.431 -58.67,55.938c-28.54,-1.325 -51.751,-24.385 -53.251,-52.917c-1.158,-22.034 10.436,-41.455 28.051,-51.586l-70.247,-343.435l-69.883,0c-13.255,0 -24,-10.745 -24,-24l0,-16c0,-13.255 10.745,-24 24,-24l102.529,0c11.401,0 21.228,8.021 23.513,19.19l9.166,44.81l392.782,0c15.401,0 26.816,14.301 23.403,29.319l-47.273,208c-2.483,10.927 -12.197,18.681 -23.403,18.681Zm-96.717,-152l-48,0l0,-40c0,-8.837 -7.163,-16 -16,-16l-16,0c-8.837,0 -16,7.163 -16,16l0,40l-48,0c-8.837,0 -16,7.163 -16,16l0,16c0,8.837 7.163,16 16,16l48,0l0,40c0,8.837 7.163,16 16,16l16,0c8.837,0 16,-7.163 16,-16l0,-40l48,0c8.837,0 16,-7.163 16,-16l0,-16c0,-8.837 -7.163,-16 -16,-16Z" style="fill:#fff;fill-rule:nonzero;"/></svg>